<svg xmlns="http://www.w3.org/2000/svg" viewBox="0 0 701 398"><defs><style>.a,.b,.c,.e,.f{fill:none;}.a,.c,.e,.f{stroke:#000;}.a,.b,.c,.f{stroke-linecap:round;}.a,.b,.c{stroke-linejoin:round;}.a{stroke-width:0.36px;}.b{stroke:lime;stroke-width:0.72px;}.c{stroke-width:0.48px;}.d{font-size:17.43px;}.d,.g,.h{font-family:Calibri, Calibri;}.e,.f{stroke-miterlimit:10;stroke-width:0;}.g{font-size:20.33px;}.h{font-size:15.25px;}</style></defs><title>BAS_Base Apron Sink-specs</title><polyline class="a" points="405.6 333.64 630.36 333.64 630.36 52.6 405.6 52.6 405.6 333.64"/><polyline class="a" points="631.08 333.04 638.52 333.04 638.52 146.8 631.08 146.8 631.08 333.04"/><polyline class="a" points="631.08 145.72 638.52 145.72 638.52 53.2 631.08 53.2 631.08 145.72"/><polyline class="a" points="630.36 333.64 411.48 333.64 411.48 327.64 630.36 327.64 630.36 333.64"/><path class="a" d="M471,330.58a1.5,1.5,0,1,0-1.5,1.5,1.5,1.5,0,0,0,1.5-1.5"/><path class="a" d="M506.4,330.58a1.5,1.5,0,1,0-1.5,1.5,1.5,1.5,0,0,0,1.5-1.5"/><path class="a" d="M565.44,330.58a1.5,1.5,0,1,0-1.5,1.5,1.5,1.5,0,0,0,1.5-1.5"/><path class="a" d="M624.48,330.58a1.5,1.5,0,1,0-1.5,1.5,1.5,1.5,0,0,0,1.5-1.5"/><path class="a" d="M471,330.58a1.5,1.5,0,1,0-1.5,1.5,1.5,1.5,0,0,0,1.5-1.5"/><path class="a" d="M506.4,330.58a1.5,1.5,0,1,0-1.5,1.5,1.5,1.5,0,0,0,1.5-1.5"/><path class="a" d="M565.44,330.58a1.5,1.5,0,1,0-1.5,1.5,1.5,1.5,0,0,0,1.5-1.5"/><path class="a" d="M600.84,330.58a1.5,1.5,0,1,0-1.5,1.5,1.5,1.5,0,0,0,1.5-1.5"/><polyline class="a" points="630.36 146.32 411.48 146.32 411.48 152.2 630.36 152.2 630.36 146.32"/><path class="a" d="M471,149.14a1.5,1.5,0,1,0-1.5,1.5,1.5,1.5,0,0,0,1.5-1.5"/><path class="a" d="M506.4,149.14a1.5,1.5,0,1,0-1.5,1.5,1.5,1.5,0,0,0,1.5-1.5"/><path class="a" d="M565.44,149.14a1.5,1.5,0,1,0-1.5,1.5,1.5,1.5,0,0,0,1.5-1.5"/><path class="a" d="M471,149.14a1.5,1.5,0,1,0-1.5,1.5,1.5,1.5,0,0,0,1.5-1.5"/><path class="a" d="M506.4,149.14a1.5,1.5,0,1,0-1.5,1.5,1.5,1.5,0,0,0,1.5-1.5"/><path class="a" d="M565.44,149.14a1.5,1.5,0,1,0-1.5,1.5,1.5,1.5,0,0,0,1.5-1.5"/><path class="a" d="M600.84,149.14a1.5,1.5,0,1,0-1.5,1.5,1.5,1.5,0,0,0,1.5-1.5"/><polyline class="a" points="618.6 152.2 612.6 152.2 612.6 180.28 618.6 180.28 618.6 152.2"/><polyline class="a" points="631.08 196.6 609.12 196.6 609.12 190.36 631.08 190.36 631.08 196.6"/><polyline class="a" points="620.88 203.2 612.48 203.2 612.48 196.6 620.88 196.6 620.88 203.2"/><polyline class="a" points="620.88 190.36 612.48 190.36 612.48 183.76 620.88 183.76 620.88 190.36"/><polyline class="a" points="635.52 199.96 631.08 199.96 631.08 187 635.52 187 635.52 199.96"/><path class="a" d="M623.76,193.42a1.14,1.14,0,1,0-1.14,1.14,1.14,1.14,0,0,0,1.14-1.14"/><path class="a" d="M618.36,193.42a1.14,1.14,0,1,0-1.14,1.14,1.14,1.14,0,0,0,1.14-1.14"/><path class="a" d="M618.24,187.54a1.62,1.62,0,1,0-1.62,1.62,1.63,1.63,0,0,0,1.62-1.62"/><path class="a" d="M618.24,199.3a1.62,1.62,0,1,0-1.62,1.62,1.63,1.63,0,0,0,1.62-1.62"/><polyline class="b" points="617.64 187.6 617.4 186.88 616.68 186.64 616.08 186.88 615.72 187.6 616.08 188.2 616.68 188.56 617.4 188.2 617.64 187.6"/><polyline class="b" points="617.64 199.36 617.4 198.76 616.68 198.52 616.08 198.76 615.72 199.36 616.08 200.08 616.68 200.32 617.4 200.08 617.64 199.36"/><polyline class="a" points="631.08 283.24 609.12 283.24 609.12 289.48 631.08 289.48 631.08 283.24"/><polyline class="a" points="620.88 276.64 612.48 276.64 612.48 283.24 620.88 283.24 620.88 276.64"/><polyline class="a" points="620.88 289.48 612.48 289.48 612.48 296.2 620.88 296.2 620.88 289.48"/><polyline class="a" points="635.52 279.88 631.08 279.88 631.08 292.84 635.52 292.84 635.52 279.88"/><path class="a" d="M623.76,286.3a1.14,1.14,0,1,0-1.14,1.14,1.14,1.14,0,0,0,1.14-1.14"/><path class="a" d="M618.36,286.3a1.14,1.14,0,1,0-1.14,1.14,1.14,1.14,0,0,0,1.14-1.14"/><path class="a" d="M618.24,292.18a1.62,1.62,0,1,0-1.62,1.62,1.63,1.63,0,0,0,1.62-1.62"/><path class="a" d="M618.24,280.42a1.62,1.62,0,1,0-1.62,1.62,1.63,1.63,0,0,0,1.62-1.62"/><polyline class="b" points="617.64 292.24 617.4 292.96 616.68 293.2 616.08 292.96 615.72 292.24 616.08 291.64 616.68 291.4 617.4 291.64 617.64 292.24"/><polyline class="b" points="617.64 280.48 617.4 281.2 616.68 281.44 616.08 281.2 615.72 280.48 616.08 279.88 616.68 279.52 617.4 279.88 617.64 280.48"/><polyline class="a" points="405.6 333.64 411.48 333.64 411.48 52.6 405.6 52.6 405.6 333.64"/><line class="c" x1="445.44" y1="334.36" x2="424.2" y2="334.36"/><line class="c" x1="436.2" y1="334.72" x2="436.2" y2="343.12"/><line class="c" x1="433.32" y1="343.12" x2="433.32" y2="334.72"/><line class="c" x1="443.28" y1="343.12" x2="443.28" y2="334.72"/><line class="c" x1="426.12" y1="334.72" x2="426.12" y2="343.12"/><line class="c" x1="444" y1="334.72" x2="425.4" y2="334.72"/><polyline class="c" points="424.2 333.64 424.2 334.36 424.8 334.6 425.4 334.72"/><polyline class="c" points="444 334.72 444.72 334.6 445.44 334.36 445.44 333.64"/><polyline class="c" points="443.28 343.12 436.2 343.12 433.32 343.12 426.12 343.12"/><line class="c" x1="429.96" y1="343.12" x2="429.96" y2="365.08"/><line class="c" x1="439.56" y1="343.12" x2="439.56" y2="365.08"/><line class="c" x1="443.4" y1="375.76" x2="426" y2="375.76"/><line class="c" x1="426" y1="367.6" x2="443.4" y2="367.6"/><line class="c" x1="439.56" y1="365.08" x2="429.96" y2="365.08"/><line class="c" x1="426" y1="367.6" x2="426" y2="375.76"/><line class="c" x1="443.4" y1="367.6" x2="443.4" y2="375.76"/><line class="c" x1="430.68" y1="365.08" x2="430.68" y2="367.6"/><line class="c" x1="438.72" y1="365.08" x2="438.72" y2="367.6"/><line class="c" x1="610.08" y1="334.36" x2="588.84" y2="334.36"/><line class="c" x1="600.84" y1="334.72" x2="600.84" y2="343.12"/><line class="c" x1="597.96" y1="343.12" x2="597.96" y2="334.72"/><line class="c" x1="607.92" y1="343.12" x2="607.92" y2="334.72"/><line class="c" x1="590.88" y1="334.72" x2="590.88" y2="343.12"/><line class="c" x1="608.76" y1="334.72" x2="590.04" y2="334.72"/><polyline class="c" points="588.84 333.64 588.84 334.36 589.44 334.6 590.04 334.72"/><polyline class="c" points="608.76 334.72 609.36 334.6 610.08 334.36 610.08 333.64"/><polyline class="c" points="607.92 343.12 600.84 343.12 597.96 343.12 590.88 343.12"/><line class="c" x1="594.6" y1="343.12" x2="594.6" y2="365.08"/><line class="c" x1="604.2" y1="343.12" x2="604.2" y2="365.08"/><line class="c" x1="608.04" y1="375.76" x2="590.76" y2="375.76"/><line class="c" x1="590.76" y1="367.6" x2="608.04" y2="367.6"/><line class="c" x1="604.2" y1="365.08" x2="594.6" y2="365.08"/><line class="c" x1="590.76" y1="367.6" x2="590.76" y2="375.76"/><line class="c" x1="608.04" y1="367.6" x2="608.04" y2="375.76"/><line class="c" x1="595.32" y1="365.08" x2="595.32" y2="367.6"/><line class="c" x1="603.48" y1="365.08" x2="603.48" y2="367.6"/><text class="d" transform="translate(483.36 185.68)">3&quot; Headers</text><polygon points="601.56 167.44 612.6 166.24 602.52 170.92 601.56 167.44"/><polygon class="e" points="601.56 167.44 612.6 166.24 602.52 170.92 601.56 167.44"/><polyline class="a" points="602.04 169.24 597.36 170.68 592.8 172.24 583.56 175.6 578.88 177.16 574.2 178.36 569.52 179.2 567.12 179.44 564.72 179.56"/><text class="d" transform="translate(508.2 95.08)">Plywood</text><text class="d" transform="translate(506.04 114.4)">Set Shelf</text><polygon points="584.28 135.16 585 146.32 580.68 136 584.28 135.16"/><polygon class="f" points="584.28 135.16 585 146.32 580.68 136 584.28 135.16"/><polyline class="a" points="582.48 135.52 582 132.4 581.64 129.04 581.52 125.44 581.52 121.72 581.64 113.92 581.64 110.08 581.64 106.36 581.4 102.76 581.04 99.52 580.44 96.52 579.96 95.2 579.48 94 578.88 92.8 578.16 91.84 577.32 91 576.48 90.28 575.4 89.68 574.2 89.2 573 88.96 571.56 88.84"/><polyline class="a" points="59.28 333.64 340.32 333.64 340.32 52.6 59.28 52.6 59.28 333.64"/><polyline class="a" points="59.88 333.04 199.2 333.04 199.2 146.8 59.88 146.8 59.88 333.04"/><polyline class="a" points="59.88 145.72 339.72 145.72 339.72 53.2 59.88 53.2 59.88 145.72"/><polyline class="a" points="339.72 333.04 200.4 333.04 200.4 146.8 339.72 146.8 339.72 333.04"/><line class="a" x1="87.96" y1="146.8" x2="87.96" y2="333.04"/><line class="a" x1="171.24" y1="146.8" x2="171.24" y2="333.04"/><line class="a" x1="87.96" y1="174.88" x2="171.24" y2="174.88"/><line class="a" x1="87.96" y1="304.96" x2="171.24" y2="304.96"/><line class="a" x1="228.36" y1="146.8" x2="228.36" y2="333.04"/><line class="a" x1="311.76" y1="146.8" x2="311.76" y2="333.04"/><line class="a" x1="228.36" y1="174.88" x2="311.76" y2="174.88"/><line class="a" x1="228.36" y1="304.96" x2="311.76" y2="304.96"/><text class="d" transform="translate(118.44 94.36)">Slab False Drawer Front</text><text class="d" transform="translate(120.24 113.8)">(Removable by Screws)</text><line class="c" x1="91.32" y1="334.36" x2="70.08" y2="334.36"/><line class="c" x1="82.08" y1="334.72" x2="82.08" y2="343.12"/><line class="c" x1="79.2" y1="343.12" x2="79.2" y2="334.72"/><line class="c" x1="89.16" y1="343.12" x2="89.16" y2="334.72"/><line class="c" x1="72.12" y1="334.72" x2="72.12" y2="343.12"/><line class="c" x1="90" y1="334.72" x2="71.4" y2="334.72"/><polyline class="c" points="70.08 333.64 70.08 334.36 70.8 334.6 71.4 334.72"/><polyline class="c" points="90 334.72 90.6 334.6 91.32 334.36 91.32 333.64"/><polyline class="c" points="89.16 343.12 82.08 343.12 79.2 343.12 72.12 343.12"/><line class="c" x1="75.84" y1="343.12" x2="75.84" y2="365.08"/><line class="c" x1="85.44" y1="343.12" x2="85.44" y2="365.08"/><line class="c" x1="89.28" y1="375.76" x2="72" y2="375.76"/><line class="c" x1="72" y1="367.6" x2="89.28" y2="367.6"/><line class="c" x1="85.44" y1="365.08" x2="75.84" y2="365.08"/><line class="c" x1="72" y1="367.6" x2="72" y2="375.76"/><line class="c" x1="89.28" y1="367.6" x2="89.28" y2="375.76"/><line class="c" x1="76.56" y1="365.08" x2="76.56" y2="367.6"/><line class="c" x1="84.72" y1="365.08" x2="84.72" y2="367.6"/><line class="c" x1="308.28" y1="334.36" x2="329.52" y2="334.36"/><line class="c" x1="317.52" y1="334.72" x2="317.52" y2="343.12"/><line class="c" x1="320.4" y1="343.12" x2="320.4" y2="334.72"/><line class="c" x1="310.44" y1="343.12" x2="310.44" y2="334.72"/><line class="c" x1="327.48" y1="334.72" x2="327.48" y2="343.12"/><line class="c" x1="309.6" y1="334.72" x2="328.32" y2="334.72"/><polyline class="c" points="329.52 333.64 329.52 334.36 328.92 334.6 328.32 334.72"/><polyline class="c" points="309.6 334.72 309 334.6 308.28 334.36 308.28 333.64"/><polyline class="c" points="310.44 343.12 317.52 343.12 320.4 343.12 327.48 343.12"/><line class="c" x1="323.76" y1="343.12" x2="323.76" y2="365.08"/><line class="c" x1="314.16" y1="343.12" x2="314.16" y2="365.08"/><line class="c" x1="310.32" y1="375.76" x2="327.6" y2="375.76"/><line class="c" x1="327.6" y1="367.6" x2="310.32" y2="367.6"/><line class="c" x1="314.16" y1="365.08" x2="323.76" y2="365.08"/><line class="c" x1="327.6" y1="367.6" x2="327.6" y2="375.76"/><line class="c" x1="310.32" y1="367.6" x2="310.32" y2="375.76"/><line class="c" x1="323.04" y1="365.08" x2="323.04" y2="367.6"/><line class="c" x1="314.88" y1="365.08" x2="314.88" y2="367.6"/><line class="a" x1="51.96" y1="333.64" x2="18" y2="333.64"/><line class="a" x1="64.68" y1="375.76" x2="18" y2="375.76"/><line class="a" x1="25.44" y1="333.64" x2="25.44" y2="338.68"/><line class="a" x1="25.44" y1="375.76" x2="25.44" y2="368.8"/><line class="a" x1="29.04" y1="337.24" x2="21.72" y2="329.92"/><line class="a" x1="21.72" y1="372.04" x2="29.04" y2="379.36"/><text class="g" transform="translate(13.44 360.16)">4</text><text class="h" transform="translate(22.68 352.12)">1</text><line class="a" x1="23.76" y1="353.68" x2="29.76" y2="353.68"/><text class="h" transform="translate(22.92 365.08)">2</text><text class="g" transform="translate(30.24 360.16)">&quot;</text><line class="a" x1="51.96" y1="333.64" x2="18" y2="333.64"/><line class="a" x1="51.96" y1="52.6" x2="18" y2="52.6"/><line class="a" x1="25.44" y1="333.64" x2="25.44" y2="203.44"/><line class="a" x1="25.44" y1="52.6" x2="25.44" y2="182.8"/><line class="a" x1="21.72" y1="329.92" x2="29.04" y2="337.24"/><line class="a" x1="29.04" y1="56.32" x2="21.72" y2="49"/><text class="g" transform="translate(11.28 199.48)">30&quot;</text><line class="a" x1="405.6" y1="45.28" x2="405.6" y2="15.76"/><line class="a" x1="630.36" y1="45.28" x2="630.36" y2="15.76"/><line class="a" x1="405.6" y1="23.2" x2="501.24" y2="23.2"/><line class="a" x1="630.36" y1="23.2" x2="534.72" y2="23.2"/><line class="a" x1="409.32" y1="19.48" x2="401.88" y2="26.8"/><line class="a" x1="626.64" y1="26.8" x2="634.08" y2="19.48"/><text class="g" transform="translate(503.76 29.56)">24&quot;</text><line class="a" x1="418.92" y1="52.6" x2="450.12" y2="52.6"/><line class="a" x1="418.92" y1="146.32" x2="450.12" y2="146.32"/><line class="a" x1="442.68" y1="52.6" x2="442.68" y2="89.2"/><line class="a" x1="442.68" y1="146.32" x2="442.68" y2="109.72"/><line class="a" x1="446.4" y1="56.32" x2="438.96" y2="49"/><line class="a" x1="438.96" y1="142.6" x2="446.4" y2="149.92"/><text class="g" transform="translate(428.16 105.88)">10&quot;</text><line class="a" x1="645.84" y1="53.2" x2="675.36" y2="53.2"/><line class="a" x1="645.84" y1="145.72" x2="675.36" y2="145.72"/><line class="a" x1="667.92" y1="53.2" x2="667.92" y2="84.28"/><line class="a" x1="667.92" y1="145.72" x2="667.92" y2="114.64"/><line class="a" x1="671.64" y1="56.92" x2="664.32" y2="49.48"/><line class="a" x1="664.32" y1="142" x2="671.64" y2="149.44"/><text class="g" transform="translate(655.56 105.88)">9</text><text class="h" transform="translate(665.28 97.72)">7</text><line class="a" x1="665.88" y1="99.4" x2="672.36" y2="99.4"/><text class="h" transform="translate(665.28 110.92)">8</text><text class="g" transform="translate(672.96 105.88)">&quot;</text><line class="a" x1="645.84" y1="146.8" x2="675.36" y2="146.8"/><line class="a" x1="645.84" y1="333.04" x2="675.36" y2="333.04"/><line class="a" x1="667.92" y1="146.8" x2="667.92" y2="224.8"/><line class="a" x1="667.92" y1="333.04" x2="667.92" y2="255.16"/><line class="a" x1="671.64" y1="150.52" x2="664.32" y2="143.2"/><line class="a" x1="664.32" y1="329.32" x2="671.64" y2="336.76"/><text class="g" transform="translate(649.92 246.28)">19</text><text class="h" transform="translate(669.96 238.24)">7</text><line class="a" x1="670.56" y1="239.8" x2="677.04" y2="239.8"/><text class="h" transform="translate(669.96 251.32)">8</text><text class="g" transform="translate(677.64 246.28)">&quot;</text><polyline class="a" points="624.48 152.2 618.6 152.2 618.6 180.28 624.48 180.28 624.48 152.2"/><polyline class="a" points="630.36 152.2 624.48 152.2 624.48 180.28 630.36 180.28 630.36 152.2"/><path class="a" d="M628.8,172.9a1.5,1.5,0,1,0-1.5,1.5,1.5,1.5,0,0,0,1.5-1.5"/><path class="a" d="M624.48,149.26a1.5,1.5,0,1,0-1.5,1.5,1.5,1.5,0,0,0,1.5-1.5"/><polyline class="a" points="630.6 146.32 630.36 146.32 630.36 140.44 630.6 140.44 630.6 146.32"/><polyline class="a" points="630.6 58.6 630.36 58.6 630.36 52.6 630.6 52.6 630.6 58.6"/><polyline class="a" points="633.96 99.52 624.48 99.52 624.48 97.6"/><line class="a" x1="624.48" y1="101.32" x2="624.48" y2="99.52"/><path class="a" d="M624,97.59a2.44,2.44,0,0,0,0,3.74"/><line class="a" x1="624.48" y1="100.36" x2="625.32" y2="98.56"/><line class="a" x1="625.32" y1="100.36" x2="626.28" y2="98.56"/><line class="a" x1="626.28" y1="100.36" x2="627.24" y2="98.56"/><line class="a" x1="627.24" y1="100.36" x2="628.2" y2="98.56"/><line class="a" x1="628.2" y1="100.36" x2="629.04" y2="98.56"/><line class="a" x1="629.04" y1="100.36" x2="630" y2="98.56"/><line class="a" x1="630" y1="100.36" x2="630.96" y2="98.56"/><line class="a" x1="630.96" y1="100.36" x2="631.8" y2="98.56"/><line class="a" x1="631.8" y1="100.36" x2="632.76" y2="98.56"/><polyline class="a" points="633 99.88 633.24 99.52 633.48 99.04"/><line class="a" x1="624.12" y1="97.6" x2="624.48" y2="97.6"/><line class="a" x1="624.12" y1="101.32" x2="624.48" y2="101.32"/><polyline class="a" points="630.36 146.32 624.48 146.32 624.48 52.6 630.36 52.6 630.36 146.32"/><path class="a" d="M628.8,159.46a1.5,1.5,0,1,0-1.5,1.5,1.5,1.5,0,0,0,1.5-1.5"/><path class="a" d="M628.8,118.9a1.5,1.5,0,1,0-1.5,1.5,1.5,1.5,0,0,0,1.5-1.5"/><path class="a" d="M628.8,118.9a1.5,1.5,0,1,0-1.5,1.5,1.5,1.5,0,0,0,1.5-1.5"/><path class="a" d="M628.8,83.5a1.5,1.5,0,1,0-1.5,1.5,1.5,1.5,0,0,0,1.5-1.5"/><path class="a" d="M628.8,60a1.5,1.5,0,1,0-1.5,1.5,1.5,1.5,0,0,0,1.5-1.5"/></svg>