<?xml version="1.0" encoding="utf-8"?>
<!-- Generator: Adobe Illustrator 22.0.1, SVG Export Plug-In . SVG Version: 6.00 Build 0)  -->
<svg version="1.1" id="Layer_1" xmlns="http://www.w3.org/2000/svg" xmlns:xlink="http://www.w3.org/1999/xlink" x="0px" y="0px"
	 viewBox="0 0 1338 338" style="enable-background:new 0 0 1338 338;" xml:space="preserve">
<style type="text/css">
	.st0{fill:#FFFFFF;stroke:#000000;stroke-miterlimit:10;}
	.st1{clip-path:url(#SVGID_2_);}
	.st2{clip-path:url(#SVGID_4_);fill:#3F281D;}
</style>
<rect x="-0.5" y="-0.5" class="st0" width="1338" height="338"/>
<g id="Artwork_3_1_">
	<g>
		<defs>
			<rect id="SVGID_1_" x="33.5" y="25.5" width="1271" height="287"/>
		</defs>
		<clipPath id="SVGID_2_">
			<use xlink:href="#SVGID_1_"  style="overflow:visible;"/>
		</clipPath>
		<g class="st1">
			<defs>
				<rect id="SVGID_3_" x="33.5" y="25.5" width="1271" height="287"/>
			</defs>
			<clipPath id="SVGID_4_">
				<use xlink:href="#SVGID_3_"  style="overflow:visible;"/>
			</clipPath>
			<path class="st2" d="M403.9,159h8.5v11.8c3.4-4.5,7.2-7.9,11.3-10.2c4.1-2.2,8.6-3.4,13.5-3.4c4.9,0,9.3,1.2,13.1,3.8
				c3.8,2.5,6.7,5.9,8.5,10.1c1.8,4.3,2.7,10.9,2.7,19.9v34H453v-31.5c0-7.6-0.3-12.7-0.9-15.2c-1-4.4-2.9-7.7-5.7-9.9
				c-2.8-2.2-6.4-3.3-10.9-3.3c-5.1,0-9.7,1.7-13.8,5.1c-4.1,3.4-6.7,7.6-8,12.6c-0.8,3.3-1.2,9.3-1.2,18V225h-8.5V159z"/>
			<path class="st2" d="M479.5,131.8c1.9,0,3.6,0.7,5,2.1c1.4,1.4,2.1,3,2.1,5c0,1.9-0.7,3.6-2.1,4.9c-1.4,1.4-3,2.1-5,2.1
				c-1.9,0-3.5-0.7-4.9-2.1c-1.4-1.4-2.1-3-2.1-4.9c0-1.9,0.7-3.6,2.1-5C476,132.5,477.6,131.8,479.5,131.8 M475.3,159h8.5V225h-8.5
				V159z"/>
			<path class="st2" d="M562.5,172.7l-6.7,4.2c-5.8-7.7-13.8-11.6-23.8-11.6c-8,0-14.7,2.6-20.1,7.8c-5.3,5.2-8,11.5-8,18.8
				c0,4.8,1.2,9.4,3.7,13.6c2.4,4.3,5.8,7.5,10.1,9.9c4.3,2.3,9,3.5,14.3,3.5c9.7,0,17.6-3.9,23.8-11.6l6.7,4.4
				c-3.2,4.8-7.4,8.4-12.7,11.1c-5.3,2.6-11.4,3.9-18.2,3.9c-10.4,0-19.1-3.3-26-10c-6.9-6.6-10.3-14.7-10.3-24.2
				c0-6.4,1.6-12.3,4.8-17.8c3.2-5.5,7.7-9.8,13.3-12.9c5.6-3.1,11.9-4.6,18.9-4.6c4.4,0,8.6,0.7,12.7,2c4.1,1.3,7.5,3.1,10.4,5.2
				C558.1,166.6,560.5,169.4,562.5,172.7"/>
			<polygon class="st2" points="575.7,133.5 584.2,133.5 584.2,185.6 614.8,159 627.3,159 591,190.5 629.4,225 617.4,225 
				584.2,195.3 584.2,225 575.7,225 			"/>
			<path class="st2" d="M687.6,203.1l7.2,3.8c-2.4,4.6-5.1,8.3-8.1,11.2c-3.1,2.8-6.5,5-10.4,6.5c-3.8,1.5-8.2,2.2-13.1,2.2
				c-10.8,0-19.2-3.5-25.3-10.6c-6.1-7.1-9.1-15.1-9.1-24c0-8.4,2.6-15.9,7.7-22.4c6.5-8.3,15.2-12.5,26.2-12.5
				c11.3,0,20.3,4.3,27,12.8c4.8,6,7.2,13.6,7.3,22.6h-59.4c0.2,7.7,2.6,14,7.3,18.9c4.7,4.9,10.6,7.4,17.6,7.4
				c3.4,0,6.6-0.6,9.8-1.8c3.2-1.2,5.9-2.7,8.1-4.7C682.5,210.5,685,207.4,687.6,203.1 M687.6,185.3c-1.1-4.5-2.8-8.2-5-10.9
				c-2.2-2.7-5-4.9-8.6-6.6c-3.6-1.7-7.3-2.5-11.2-2.5c-6.5,0-12.1,2.1-16.7,6.3c-3.4,3-6,7.6-7.7,13.7H687.6z"/>
			<rect x="710.2" y="133.5" class="st2" width="8.5" height="91.6"/>
			<path class="st2" d="M768.4,166.2l-5.5,5.7c-4.5-4.4-9-6.6-13.3-6.6c-2.8,0-5.1,0.9-7.1,2.7c-2,1.8-3,3.9-3,6.4
				c0,2.1,0.8,4.2,2.4,6.1c1.6,2,5,4.3,10.2,7c6.3,3.3,10.6,6.4,12.9,9.5c2.2,3.1,3.3,6.6,3.3,10.4c0,5.4-1.9,10-5.7,13.8
				c-3.8,3.8-8.6,5.6-14.3,5.6c-3.8,0-7.4-0.8-10.9-2.5c-3.5-1.7-6.3-3.9-8.6-6.9l5.3-6.1c4.3,4.9,8.9,7.4,13.8,7.4
				c3.4,0,6.3-1.1,8.7-3.3c2.4-2.2,3.6-4.8,3.6-7.7c0-2.4-0.8-4.6-2.4-6.5c-1.6-1.9-5.1-4.2-10.7-7c-6-3.1-10-6.1-12.2-9.1
				c-2.1-3-3.2-6.4-3.2-10.3c0-5,1.7-9.2,5.1-12.5c3.4-3.3,7.7-5,13-5C756.1,157.3,762.2,160.2,768.4,166.2"/>
			<path class="st2" d="M877.6,172.7l-6.7,4.2c-5.8-7.7-13.8-11.6-23.8-11.6c-8,0-14.7,2.6-20,7.8c-5.3,5.2-8,11.5-8,18.8
				c0,4.8,1.2,9.4,3.7,13.6c2.5,4.3,5.8,7.5,10.1,9.9c4.3,2.3,9,3.5,14.4,3.5c9.7,0,17.6-3.9,23.8-11.6l6.7,4.4
				c-3.1,4.8-7.4,8.4-12.7,11.1c-5.3,2.6-11.4,3.9-18.2,3.9c-10.4,0-19.1-3.3-26-10c-6.9-6.6-10.3-14.7-10.3-24.2
				c0-6.4,1.6-12.3,4.8-17.8c3.2-5.5,7.6-9.8,13.3-12.9c5.6-3.1,11.9-4.6,18.9-4.6c4.4,0,8.6,0.7,12.7,2c4.1,1.3,7.5,3.1,10.3,5.2
				C873.2,166.6,875.6,169.4,877.6,172.7"/>
			<path class="st2" d="M956.7,159V225h-8.4v-11.4c-3.6,4.3-7.6,7.6-12,9.8c-4.4,2.2-9.3,3.3-14.5,3.3c-9.4,0-17.3-3.4-24-10.2
				c-6.6-6.8-9.9-15-9.9-24.7c0-9.5,3.4-17.7,10-24.4c6.7-6.8,14.7-10.1,24.1-10.1c5.4,0,10.3,1.1,14.8,3.5
				c4.4,2.3,8.2,5.8,11.6,10.4V159H956.7z M922.7,165.5c-4.7,0-9.1,1.2-13.1,3.5c-4,2.3-7.2,5.6-9.6,9.8c-2.4,4.2-3.6,8.6-3.6,13.3
				c0,4.6,1.2,9.1,3.6,13.3c2.4,4.3,5.6,7.6,9.6,9.9c4,2.4,8.3,3.6,13,3.6s9.1-1.2,13.2-3.5c4.2-2.3,7.4-5.5,9.6-9.5
				c2.2-4,3.4-8.5,3.4-13.5c0-7.6-2.5-14-7.6-19.2C936.2,168,930.1,165.5,922.7,165.5"/>
			<path class="st2" d="M973.2,225v-91.6h8.5v36.9c3.6-4.4,7.5-7.6,11.9-9.8c4.4-2.2,9.2-3.2,14.5-3.2c9.3,0,17.3,3.4,23.9,10.2
				c6.6,6.8,9.9,15,9.9,24.7c0,9.6-3.4,17.7-10,24.5c-6.7,6.8-14.7,10.1-24.1,10.1c-5.4,0-10.2-1.1-14.6-3.5
				c-4.4-2.3-8.2-5.8-11.6-10.4V225H973.2z M1007.2,218.5c4.7,0,9.1-1.2,13.1-3.5c4-2.3,7.2-5.6,9.6-9.8c2.4-4.2,3.5-8.7,3.5-13.4
				c0-4.7-1.2-9.2-3.6-13.4c-2.4-4.3-5.6-7.6-9.6-9.9c-4-2.4-8.3-3.6-12.9-3.6c-4.6,0-9,1.2-13.2,3.6c-4.2,2.4-7.4,5.6-9.6,9.6
				c-2.2,4-3.4,8.5-3.4,13.5c0,7.7,2.5,14,7.5,19.2C993.7,216,999.9,218.5,1007.2,218.5"/>
			<path class="st2" d="M1059.2,131.8c1.9,0,3.6,0.7,5,2.1c1.4,1.4,2.1,3,2.1,5c0,1.9-0.7,3.6-2.1,4.9c-1.4,1.4-3,2.1-5,2.1
				c-1.9,0-3.5-0.7-4.9-2.1c-1.4-1.4-2.1-3-2.1-4.9c0-1.9,0.7-3.6,2.1-5C1055.7,132.5,1057.3,131.8,1059.2,131.8 M1055,159h8.5V225
				h-8.5V159z"/>
			<path class="st2" d="M1079.9,159h8.5v11.8c3.4-4.5,7.1-7.9,11.3-10.2c4.1-2.2,8.6-3.4,13.5-3.4c4.9,0,9.3,1.2,13.1,3.8
				c3.8,2.5,6.7,5.9,8.5,10.1c1.8,4.3,2.7,10.9,2.7,19.9v34h-8.5v-31.5c0-7.6-0.3-12.7-0.9-15.2c-1-4.4-2.9-7.7-5.7-9.9
				c-2.8-2.2-6.4-3.3-10.9-3.3c-5.1,0-9.7,1.7-13.8,5.1c-4.1,3.4-6.7,7.6-8,12.6c-0.8,3.3-1.2,9.3-1.2,18V225h-8.5V159z"/>
			<path class="st2" d="M1210.1,203.1l7.2,3.8c-2.4,4.6-5.1,8.3-8.1,11.2c-3.1,2.8-6.5,5-10.4,6.5c-3.8,1.5-8.2,2.2-13.1,2.2
				c-10.8,0-19.2-3.5-25.3-10.6c-6.1-7.1-9.1-15.1-9.1-24c0-8.4,2.6-15.9,7.7-22.4c6.6-8.3,15.3-12.5,26.2-12.5
				c11.3,0,20.3,4.3,27,12.8c4.8,6,7.2,13.6,7.3,22.6H1160c0.2,7.7,2.6,14,7.4,18.9c4.7,4.9,10.6,7.4,17.6,7.4
				c3.4,0,6.6-0.6,9.8-1.8c3.2-1.2,5.9-2.7,8.1-4.7C1205.1,210.5,1207.5,207.4,1210.1,203.1 M1210.1,185.3
				c-1.1-4.5-2.8-8.2-4.9-10.9c-2.2-2.7-5.1-4.9-8.6-6.6c-3.6-1.7-7.3-2.5-11.2-2.5c-6.5,0-12.1,2.1-16.7,6.3c-3.4,3-6,7.6-7.7,13.7
				H1210.1z"/>
			<polygon class="st2" points="1239.6,134.4 1248.1,134.4 1248.1,159 1261.6,159 1261.6,166.3 1248.1,166.3 1248.1,225 1239.6,225 
				1239.6,166.3 1228,166.3 1228,159 1239.6,159 			"/>
			<path class="st2" d="M1304.5,166.2l-5.5,5.7c-4.5-4.4-9-6.6-13.3-6.6c-2.8,0-5.1,0.9-7.1,2.7c-2,1.8-3,3.9-3,6.4
				c0,2.1,0.8,4.2,2.4,6.1c1.6,2,5,4.3,10.2,7c6.3,3.3,10.6,6.4,12.9,9.5c2.2,3.1,3.3,6.6,3.3,10.4c0,5.4-1.9,10-5.7,13.8
				c-3.8,3.8-8.6,5.6-14.3,5.6c-3.8,0-7.5-0.8-10.9-2.5c-3.5-1.7-6.3-3.9-8.6-6.9l5.4-6.1c4.4,4.9,9,7.4,13.8,7.4
				c3.4,0,6.3-1.1,8.7-3.3c2.4-2.2,3.6-4.8,3.6-7.7c0-2.4-0.8-4.6-2.4-6.5c-1.6-1.9-5.1-4.2-10.7-7c-6-3.1-10-6.1-12.2-9.1
				c-2.1-3-3.2-6.4-3.2-10.3c0-5,1.7-9.2,5.1-12.5c3.4-3.3,7.8-5,13-5C1292.2,157.3,1298.3,160.2,1304.5,166.2"/>
			<path class="st2" d="M33.5,312.5h316.2v-287H33.5V312.5z M251.2,228.3c-13.7,0-26.3-4.1-35.3-12.3c-6.1-5.5-10.7-12.8-13.1-21.7
				v3.6c0,17.7,0.6,20.1,11.3,21.4l6.5,0.7c2.1,1.2,1.5,5.4-0.6,6.1c-8.9-0.5-17.5-0.7-27.9-0.7c-10.7,0-19.6,0.2-27.6,0.7
				c-2.1-0.7-2.7-4.9-0.6-6.1l5.6-0.7c11-1.5,11.3-3.7,11.3-21.4v-36.6c0-14-7.7-24.3-27.9-24.3c-11.3,0-21.1,3.9-25.2,8.6
				c-3.9,4.2-4.5,7.6-4.5,14.7V198c0,17.7,0.6,19.9,11.3,21.4l5.3,0.7c2.1,1.2,1.5,5.4-0.6,6.1c-8-0.5-16.6-0.7-27-0.7
				c-10.7,0-19.6,0.2-27.9,0.7c-2.1-0.7-2.7-4.9-0.6-6.1l6.2-0.7c11-1.2,11.3-3.7,11.3-21.4v-43c0-9.6,0-10.8-8-15.2l-2.7-1.5
				c-1.2-1-1.2-3.7,0.3-4.4c6.8-2,23.7-8.4,29.6-12c1.2,0,2.7,0.5,3.3,1.7c-0.6,5.7-0.6,9.3-0.6,11.6c0,1.5,1.2,2.7,3.3,2.7
				c12.5-6.4,26.4-12.5,41.5-12.5c24.6,0,34.7,14,34.7,30.5v11.1c5.7-21.2,25.2-40.2,60.5-40.2c5.9,0,16,1.2,22.9,4.1
				c2.1,1.7,3.9,5.5,3.9,9.6c0,4.3-2.6,8.9-5.7,8.9c-1.3,0-2.6-0.5-3.6-1.7c-5.7-6.5-15.2-12.8-25.8-12.8c-18,0-35.6,13.3-35.6,38.8
				c0,18.8,13.9,41.2,41.5,41.2c14.9,0,22.7-6.3,28.6-14.5c2.1-0.5,4.4,1.2,4.6,3.4C285.4,221.6,266.1,228.3,251.2,228.3"/>
		</g>
	</g>
</g>
</svg>
