<svg id="Layer_1" data-name="Layer 1" xmlns="http://www.w3.org/2000/svg" xmlns:xlink="http://www.w3.org/1999/xlink" viewBox="0 0 1271 287.01">
  <defs>
    <style>
      .cls-1 {
        fill: none;
      }

      .cls-2 {
        clip-path: url(#clip-path);
      }

      .cls-3 {
        clip-path: url(#clip-path-2);
      }

      .cls-4 {
        fill: #3f281d;
      }
    </style>
    <clipPath id="clip-path" transform="translate(-33.5 -25.5)">
      <rect class="cls-1" x="33.5" y="25.5" width="1271" height="287"/>
    </clipPath>
    <clipPath id="clip-path-2" transform="translate(-33.5 -25.5)">
      <rect class="cls-1" x="33.5" y="25.5" width="1271" height="287.01"/>
    </clipPath>
  </defs>
  <title>Nickels Cabinets</title>
  <g id="Artwork_3" data-name="Artwork 3">
    <g class="cls-2">
      <g class="cls-3">
        <path class="cls-4" d="M403.86,159h8.5V170.8a35.51,35.51,0,0,1,11.3-10.17,27.78,27.78,0,0,1,13.47-3.36A23.38,23.38,0,0,1,450.27,161a22.35,22.35,0,0,1,8.48,10.14q2.73,6.38,2.73,19.86v34H453V193.51c0-7.6-.32-12.69-.95-15.24-1-4.37-2.88-7.65-5.66-9.85s-6.44-3.33-10.94-3.33a21.05,21.05,0,0,0-13.82,5.1,23.88,23.88,0,0,0-8,12.63q-1.21,4.94-1.22,18V225h-8.5Z" transform="translate(-33.5 -25.5)"/>
        <path class="cls-4" d="M479.53,131.75a7.05,7.05,0,0,1,7,7.05,7,7,0,0,1-14,0,6.82,6.82,0,0,1,2.06-5,6.71,6.71,0,0,1,4.89-2.07M475.32,159h8.5V225h-8.5Z" transform="translate(-33.5 -25.5)"/>
        <path class="cls-4" d="M562.5,172.69l-6.74,4.19q-8.75-11.59-23.84-11.61-12.07,0-20,7.78a25.3,25.3,0,0,0-8,18.84,26.73,26.73,0,0,0,3.67,13.6,25.73,25.73,0,0,0,10.07,9.89A29.32,29.32,0,0,0,532,218.9q14.55,0,23.78-11.6l6.74,4.43a31.72,31.72,0,0,1-12.73,11.07,40.62,40.62,0,0,1-18.18,3.92q-15.66,0-26-9.95a32.41,32.41,0,0,1-10.32-24.23,34.52,34.52,0,0,1,4.82-17.81,34.13,34.13,0,0,1,13.28-12.86,38.85,38.85,0,0,1,18.88-4.6,40.11,40.11,0,0,1,12.65,2,35,35,0,0,1,10.37,5.22,28.32,28.32,0,0,1,7.22,8.2" transform="translate(-33.5 -25.5)"/>
        <polygon class="cls-4" points="542.17 107.96 550.67 107.96 550.67 160.13 581.3 133.47 593.79 133.47 557.47 164.98 595.91 199.53 583.94 199.53 550.67 169.79 550.67 199.53 542.17 199.53 542.17 107.96"/>
        <path class="cls-4" d="M687.55,203.11l7.17,3.76a39.52,39.52,0,0,1-8.15,11.18,32.35,32.35,0,0,1-10.39,6.46,36.42,36.42,0,0,1-13.06,2.21q-16.18,0-25.3-10.58a35.76,35.76,0,0,1-9.11-24,35.31,35.31,0,0,1,7.72-22.41q9.8-12.51,26.19-12.5,16.9,0,27,12.81c4.79,6,7.21,13.56,7.31,22.59H637.46c.15,7.66,2.62,14,7.35,18.87a23.49,23.49,0,0,0,17.57,7.36,28.53,28.53,0,0,0,9.82-1.76,25.54,25.54,0,0,0,8.12-4.67,39.21,39.21,0,0,0,7.23-9.36m0-17.8a28.15,28.15,0,0,0-5-10.86,23.46,23.46,0,0,0-8.59-6.57,26.48,26.48,0,0,0-11.25-2.48A24.19,24.19,0,0,0,646,171.66q-5.1,4.54-7.71,13.65Z" transform="translate(-33.5 -25.5)"/>
        <rect class="cls-4" x="676.73" y="107.96" width="8.5" height="91.57"/>
        <path class="cls-4" d="M768.36,166.19l-5.47,5.65c-4.53-4.42-9-6.62-13.31-6.62a10,10,0,0,0-7.09,2.73,8.44,8.44,0,0,0-3,6.38,9.42,9.42,0,0,0,2.43,6.13c1.63,2,5,4.31,10.23,7,6.33,3.28,10.62,6.45,12.9,9.46a17.33,17.33,0,0,1,3.35,10.4,18.7,18.7,0,0,1-5.73,13.78,19.46,19.46,0,0,1-14.29,5.64,24.81,24.81,0,0,1-10.91-2.48,23.82,23.82,0,0,1-8.61-6.86l5.34-6.08c4.35,4.9,8.94,7.35,13.81,7.35a12.42,12.42,0,0,0,8.7-3.28,10.1,10.1,0,0,0,3.6-7.71,9.94,9.94,0,0,0-2.36-6.51c-1.59-1.85-5.15-4.2-10.71-7q-9-4.62-12.19-9.11a17.14,17.14,0,0,1-3.21-10.26A16.68,16.68,0,0,1,737,162.24a17.87,17.87,0,0,1,13-5q9.15,0,18.37,8.92" transform="translate(-33.5 -25.5)"/>
        <path class="cls-4" d="M877.61,172.69l-6.72,4.19q-8.75-11.59-23.85-11.61-12,0-20,7.78a25.3,25.3,0,0,0-8,18.84,26.71,26.71,0,0,0,3.65,13.6,25.63,25.63,0,0,0,10.08,9.89,29.34,29.34,0,0,0,14.36,3.52q14.54,0,23.76-11.6l6.72,4.43a31.56,31.56,0,0,1-12.72,11.07,40.53,40.53,0,0,1-18.18,3.92q-15.66,0-26-9.95a32.35,32.35,0,0,1-10.33-24.23,34.53,34.53,0,0,1,4.83-17.81,34.05,34.05,0,0,1,13.25-12.86,38.92,38.92,0,0,1,18.89-4.6,40.23,40.23,0,0,1,12.67,2,35.05,35.05,0,0,1,10.34,5.22,28,28,0,0,1,7.22,8.2" transform="translate(-33.5 -25.5)"/>
        <path class="cls-4" d="M956.67,159V225h-8.38V213.67a36.17,36.17,0,0,1-12,9.78,32.56,32.56,0,0,1-14.55,3.27,32.16,32.16,0,0,1-24-10.17,34.07,34.07,0,0,1-9.94-24.73,33.54,33.54,0,0,1,10-24.42A32.64,32.64,0,0,1,922,157.27a31.24,31.24,0,0,1,14.75,3.45,33.8,33.8,0,0,1,11.56,10.39V159Zm-34,6.49A25.71,25.71,0,0,0,900,178.74a26.66,26.66,0,0,0,0,26.69,25.87,25.87,0,0,0,9.61,9.91,25,25,0,0,0,12.95,3.56,26.76,26.76,0,0,0,13.24-3.52,24.68,24.68,0,0,0,9.6-9.52,27.37,27.37,0,0,0,3.36-13.53,26.32,26.32,0,0,0-7.56-19.17,25,25,0,0,0-18.58-7.71" transform="translate(-33.5 -25.5)"/>
        <path class="cls-4" d="M973.22,225V133.46h8.5v36.86a35.9,35.9,0,0,1,11.94-9.81,33.54,33.54,0,0,1,38.44,6.93,34,34,0,0,1,9.93,24.68,33.55,33.55,0,0,1-10,24.46,32.58,32.58,0,0,1-24.09,10.14,30.86,30.86,0,0,1-14.62-3.45,34.41,34.41,0,0,1-11.58-10.39V225Zm34-6.5a25.61,25.61,0,0,0,22.63-13.3,27,27,0,0,0,0-26.78,26,26,0,0,0-9.61-9.92,24.73,24.73,0,0,0-12.87-3.56,26.37,26.37,0,0,0-13.24,3.56,24.7,24.7,0,0,0-9.62,9.56,27.26,27.26,0,0,0-3.36,13.53,26.43,26.43,0,0,0,7.53,19.2,25,25,0,0,0,18.57,7.71" transform="translate(-33.5 -25.5)"/>
        <path class="cls-4" d="M1059.2,131.75a6.78,6.78,0,0,1,5,2.07,6.86,6.86,0,0,1,2.06,5,7,7,0,0,1-14,0,6.85,6.85,0,0,1,2-5,6.75,6.75,0,0,1,4.91-2.07M1055,159h8.49V225H1055Z" transform="translate(-33.5 -25.5)"/>
        <path class="cls-4" d="M1079.91,159h8.5V170.8a35.41,35.41,0,0,1,11.3-10.17,27.76,27.76,0,0,1,13.48-3.36,23.33,23.33,0,0,1,13.13,3.76,22.35,22.35,0,0,1,8.48,10.14q2.73,6.38,2.72,19.86v34H1129V193.51c0-7.6-.31-12.69-1-15.24-1-4.37-2.88-7.65-5.67-9.85s-6.44-3.33-10.93-3.33a21.07,21.07,0,0,0-13.82,5.1,24,24,0,0,0-8,12.63q-1.23,4.94-1.22,18V225h-8.5Z" transform="translate(-33.5 -25.5)"/>
        <path class="cls-4" d="M1210.13,203.11l7.16,3.76a39.13,39.13,0,0,1-8.15,11.18,32.35,32.35,0,0,1-10.39,6.46,36.39,36.39,0,0,1-13.06,2.21c-10.79,0-19.2-3.52-25.3-10.58a35.87,35.87,0,0,1-9.12-24,35.42,35.42,0,0,1,7.71-22.41q9.84-12.51,26.21-12.5,16.9,0,27,12.81,7.18,9,7.3,22.59H1160q.24,11.49,7.36,18.87A23.45,23.45,0,0,0,1185,218.9a28.55,28.55,0,0,0,9.83-1.76,25.65,25.65,0,0,0,8.12-4.67,39.47,39.47,0,0,0,7.23-9.36m0-17.8a28.74,28.74,0,0,0-5-10.86,23.87,23.87,0,0,0-8.61-6.57,26.48,26.48,0,0,0-11.25-2.48,24.15,24.15,0,0,0-16.72,6.26c-3.4,3-6,7.58-7.72,13.65Z" transform="translate(-33.5 -25.5)"/>
        <polygon class="cls-4" points="1206.12 108.94 1214.6 108.94 1214.6 133.47 1228.09 133.47 1228.09 140.81 1214.6 140.81 1214.6 199.53 1206.12 199.53 1206.12 140.81 1194.51 140.81 1194.51 133.47 1206.12 133.47 1206.12 108.94"/>
        <path class="cls-4" d="M1304.46,166.19l-5.47,5.65c-4.53-4.42-9-6.62-13.34-6.62a10.09,10.09,0,0,0-7.09,2.73,8.44,8.44,0,0,0-3,6.38,9.49,9.49,0,0,0,2.44,6.13c1.62,2,5,4.31,10.23,7,6.33,3.28,10.63,6.45,12.89,9.46a17.33,17.33,0,0,1,3.34,10.4,18.61,18.61,0,0,1-5.72,13.78,19.44,19.44,0,0,1-14.28,5.64,24.88,24.88,0,0,1-10.92-2.48,24,24,0,0,1-8.62-6.86l5.36-6.08c4.35,4.9,9,7.35,13.81,7.35a12.52,12.52,0,0,0,8.72-3.28,10.1,10.1,0,0,0,3.57-7.71,9.94,9.94,0,0,0-2.36-6.51q-2.37-2.78-10.71-7c-6-3.08-10-6.11-12.16-9.11a17.16,17.16,0,0,1-3.24-10.26,16.69,16.69,0,0,1,5.15-12.51,17.91,17.91,0,0,1,13-5q9.14,0,18.38,8.92" transform="translate(-33.5 -25.5)"/>
        <path class="cls-4" d="M33.5,312.5H349.75V25.5H33.5Zm217.67-84.18c-13.67,0-26.3-4.08-35.31-12.28a44.43,44.43,0,0,1-13.12-21.65V198c0,17.69.58,20.15,11.27,21.38l6.52.74c2.07,1.22,1.48,5.41-.59,6.14-8.89-.49-17.5-.73-27.88-.73-10.67,0-19.57.24-27.57.73-2.07-.73-2.67-4.92-.59-6.14l5.63-.74c11-1.47,11.27-3.69,11.27-21.38V161.35c0-14-7.71-24.33-27.87-24.33-11.27,0-21.06,3.93-25.21,8.6-3.85,4.18-4.45,7.62-4.45,14.75V198c0,17.69.6,19.91,11.27,21.38l5.34.74c2.07,1.22,1.48,5.41-.59,6.14-8-.49-16.61-.73-27-.73-10.67,0-19.56.24-27.87.73-2.06-.73-2.67-4.92-.59-6.14l6.23-.74c11-1.23,11.26-3.69,11.26-21.38V155c0-9.58,0-10.81-8-15.24l-2.66-1.47c-1.2-1-1.2-3.69.29-4.42,6.82-2,23.72-8.36,29.65-12a3.6,3.6,0,0,1,3.26,1.71,100.8,100.8,0,0,0-.6,11.55c0,1.48,1.19,2.71,3.27,2.71,12.45-6.39,26.39-12.54,41.5-12.54,24.62,0,34.7,14,34.7,30.47v11.09c5.72-21.25,25.2-40.16,60.54-40.16,5.92,0,16,1.21,22.93,4.1,2.06,1.68,3.87,5.53,3.87,9.63,0,4.34-2.58,8.93-5.66,8.93a4.67,4.67,0,0,1-3.63-1.7c-5.66-6.5-15.2-12.77-25.77-12.77-18,0-35.56,13.25-35.56,38.8,0,18.81,13.92,41.23,41.5,41.23,14.94,0,22.67-6.27,28.59-14.48a4,4,0,0,1,4.65,3.39c-8.76,17.83-28.09,24.57-43,24.57" transform="translate(-33.5 -25.5)"/>
      </g>
    </g>
  </g>
</svg>
